<svg width="16" height="21" viewBox="0 0 16 21" fill="none" xmlns="http://www.w3.org/2000/svg">
    <path d="M5.0098 9.09297C4.73646 8.89773 4.59979 8.80011 4.46414 8.78809C4.34516 8.77754 4.22634 8.80994 4.12918 8.87941C4.0184 8.95862 3.95019 9.11209 3.81376 9.41905L0.775206 16.2558C0.531664 16.8038 0.409889 17.0778 0.461746 17.254C0.506749 17.407 0.622021 17.5294 0.772055 17.5834C0.944936 17.6456 1.22568 17.5403 1.78715 17.3298L7.71913 15.1053C7.82308 15.0663 7.87505 15.0468 7.92852 15.0391C7.97595 15.0322 8.02411 15.0322 8.07154 15.0391C8.12501 15.0468 8.17698 15.0663 8.28093 15.1053L14.2129 17.3298C14.7744 17.5403 15.0551 17.6456 15.228 17.5834C15.378 17.5294 15.4933 17.407 15.5383 17.254C15.5902 17.0778 15.4684 16.8038 15.2249 16.2558L12.1863 9.41905C12.0499 9.11209 11.9817 8.95862 11.8709 8.87941C11.7737 8.80994 11.6549 8.77754 11.5359 8.78809C11.4003 8.80011 11.2636 8.89773 10.9903 9.09297L8.58127 10.8137C8.23357 11.062 7.76649 11.062 7.41879 10.8137L5.0098 9.09297Z" fill="#2BA172"/>
    <path d="M5.06113 6.61281C5.04946 6.63907 5.05787 6.66991 5.08124 6.6866L7.53502 8.4393C7.70233 8.55881 7.78598 8.61856 7.87723 8.64167C7.95781 8.66209 8.04221 8.66209 8.12279 8.64167C8.21403 8.61856 8.29769 8.55881 8.465 8.4393L10.9188 6.6866C10.9421 6.66991 10.9506 6.63907 10.9389 6.61281L8.73106 1.6452C8.49952 1.12425 8.38376 0.863778 8.22244 0.783648C8.08232 0.714045 7.91769 0.714045 7.77757 0.783648C7.61625 0.863778 7.50049 1.12425 7.26896 1.6452L5.06113 6.61281Z" fill="#2BA172" fill-opacity="0.62"/>
</svg>
