<svg width="28" height="28" viewBox="0 0 28 28" fill="none" xmlns="http://www.w3.org/2000/svg">
<circle cx="14" cy="14" r="14" fill="#FFE3C7"/>
<path d="M11.0098 13.093C10.7364 12.8977 10.5998 12.8001 10.4641 12.7881C10.3451 12.7775 10.2263 12.8099 10.1291 12.8794C10.0184 12.9586 9.95016 13.1121 9.81373 13.419L6.77518 20.2558C6.53163 20.8038 6.40986 21.0778 6.46172 21.254C6.50672 21.407 6.62199 21.5294 6.77202 21.5834C6.94491 21.6456 7.22564 21.5403 7.78712 21.3298L13.7191 19.1053C13.823 19.0663 13.875 19.0468 13.9285 19.0391C13.9759 19.0322 14.0241 19.0322 14.0715 19.0391C14.125 19.0468 14.1769 19.0663 14.2809 19.1053L20.2129 21.3298C20.7744 21.5403 21.0551 21.6456 21.228 21.5834C21.378 21.5294 21.4933 21.407 21.5383 21.254C21.5901 21.0778 21.4684 20.8038 21.2248 20.2558L18.1863 13.419C18.0498 13.1121 17.9816 12.9586 17.8708 12.8794C17.7737 12.8099 17.6549 12.7775 17.5359 12.7881C17.4002 12.8001 17.2636 12.8977 16.9902 13.093L14.5812 14.8137C14.2335 15.062 13.7665 15.062 13.4188 14.8137L11.0098 13.093Z" fill="#3385FF" fill-opacity="0.9"/>
<path d="M11.0612 10.6128C11.0495 10.6391 11.0579 10.6699 11.0813 10.6866L13.535 12.4393C13.7024 12.5588 13.786 12.6186 13.8773 12.6417C13.9578 12.6621 14.0422 12.6621 14.1228 12.6417C14.2141 12.6186 14.2977 12.5588 14.465 12.4393L16.9188 10.6866C16.9422 10.6699 16.9506 10.6391 16.9389 10.6128L14.7311 5.6452C14.4996 5.12425 14.3838 4.86378 14.2225 4.78365C14.0823 4.71404 13.9177 4.71404 13.7776 4.78365C13.6163 4.86378 13.5005 5.12425 13.269 5.6452L11.0612 10.6128Z" fill="#66A3FF" fill-opacity="0.62"/>
</svg>
