<svg width="31" height="30" viewBox="0 0 31 30" fill="none" xmlns="http://www.w3.org/2000/svg">
<path d="M12.116 29.944C10.0253 29.944 8.10533 29.6347 6.356 29.016C4.628 28.3973 3.23067 27.4907 2.164 26.296C1.09733 25.08 0.510667 23.5867 0.404 21.816C0.361333 21.0907 0.478667 20.2907 0.756 19.416C1.03333 18.5413 1.41733 17.6773 1.908 16.824C2.42 15.9493 3.01733 15.1707 3.7 14.488C4.404 13.784 5.15067 13.2507 5.94 12.888C6.004 12.8453 6.1 12.8133 6.228 12.792C6.37733 12.7707 6.484 12.76 6.548 12.76C6.676 12.76 6.74 12.792 6.74 12.856C6.74 12.9627 6.58 13.1333 6.26 13.368C5.364 14.072 4.628 14.8827 4.052 15.8C3.45467 16.7173 3.00667 17.6987 2.708 18.744C2.40933 19.7893 2.26 20.8453 2.26 21.912C2.26 23.1707 2.52667 24.2587 3.06 25.176C3.61467 26.072 4.35067 26.808 5.268 27.384C6.18533 27.9813 7.23067 28.4187 8.404 28.696C9.57733 28.9733 10.804 29.112 12.084 29.112C13.5133 29.112 14.9213 28.952 16.308 28.632C17.716 28.312 18.996 27.8533 20.148 27.256C21.9187 26.3173 23.316 25.1547 24.34 23.768C25.3853 22.3813 25.908 21.0053 25.908 19.64C25.908 18.9147 25.748 18.2213 25.428 17.56C25.1293 16.8987 24.6387 16.3013 23.956 15.768C23.444 15.3627 22.8147 14.9787 22.068 14.616C21.3427 14.2533 20.564 13.9013 19.732 13.56C18.9213 13.2187 18.1213 12.8773 17.332 12.536C16.5427 12.1733 15.8493 11.7893 15.252 11.384C14.3987 10.808 13.7693 10.1893 13.364 9.528C12.98 8.86667 12.788 8.20533 12.788 7.544C12.788 6.75467 13.012 5.98667 13.46 5.24C13.9293 4.49333 14.5587 3.82133 15.348 3.224C16.1587 2.60533 17.0653 2.12533 18.068 1.784C18.9427 1.48533 19.892 1.25067 20.916 1.08C21.9613 0.909332 22.9853 0.823999 23.988 0.823999C24.82 0.823999 25.6093 0.887999 26.356 1.016C27.124 1.12267 27.796 1.32533 28.372 1.624C29.0973 1.96533 29.652 2.424 30.036 3C30.42 3.55467 30.612 4.14133 30.612 4.76C30.612 5.61333 30.228 6.36 29.46 7C29.1827 7.21333 28.8733 7.416 28.532 7.608C28.1907 7.77867 27.7853 7.928 27.316 8.056C27.2307 8.07733 27.1347 8.088 27.028 8.088C26.772 8.088 26.644 8.01333 26.644 7.864C26.644 7.77866 26.708 7.69333 26.836 7.608C26.9853 7.50133 27.1987 7.43733 27.476 7.416C28.116 7.33066 28.596 7.08533 28.916 6.68C29.2573 6.27467 29.428 5.80533 29.428 5.272C29.428 4.71733 29.236 4.17333 28.852 3.64C28.4893 3.08533 27.924 2.62667 27.156 2.264C26.388 1.88 25.4067 1.688 24.212 1.688C23.5293 1.688 22.772 1.76267 21.94 1.912C21.1293 2.06133 20.244 2.30667 19.284 2.648C18.1107 3.05333 17.1293 3.65067 16.34 4.44C15.572 5.22933 15.188 6.072 15.188 6.968C15.188 7.52267 15.3693 8.088 15.732 8.664C16.116 9.21867 16.724 9.752 17.556 10.264C18.26 10.6907 19.06 11.1173 19.956 11.544C20.852 11.9493 21.7587 12.3653 22.676 12.792C23.5933 13.1973 24.4253 13.6347 25.172 14.104C26.3453 14.8293 27.188 15.608 27.7 16.44C28.212 17.272 28.468 18.1253 28.468 19C28.468 20.024 28.1587 21.0587 27.54 22.104C26.9427 23.128 26.1533 24.0987 25.172 25.016C24.1907 25.912 23.1133 26.712 21.94 27.416C20.5747 28.2267 19.028 28.8453 17.3 29.272C15.5933 29.72 13.8653 29.944 12.116 29.944Z" fill="#FCA5A5"/>
</svg>
