<svg width="158" height="22" viewBox="0 0 158 22" fill="none" xmlns="http://www.w3.org/2000/svg">
    <path d="M5.0098 10.093C4.73646 9.89773 4.59979 9.80011 4.46414 9.78809C4.34516 9.77754 4.22634 9.80994 4.12918 9.87941C4.0184 9.95862 3.95019 10.1121 3.81376 10.419L0.775206 17.2558C0.531664 17.8038 0.409889 18.0778 0.461746 18.254C0.506749 18.407 0.622021 18.5294 0.772055 18.5834C0.944936 18.6456 1.22568 18.5403 1.78715 18.3298L7.71913 16.1053C7.82308 16.0663 7.87505 16.0468 7.92852 16.0391C7.97595 16.0322 8.02411 16.0322 8.07154 16.0391C8.12501 16.0468 8.17698 16.0663 8.28093 16.1053L14.2129 18.3298C14.7744 18.5403 15.0551 18.6456 15.228 18.5834C15.378 18.5294 15.4933 18.407 15.5383 18.254C15.5902 18.0778 15.4684 17.8038 15.2249 17.2558L12.1863 10.419C12.0499 10.1121 11.9817 9.95862 11.8709 9.87941C11.7737 9.80994 11.6549 9.77754 11.5359 9.78809C11.4003 9.80011 11.2636 9.89773 10.9903 10.093L8.58127 11.8137C8.23357 12.062 7.76649 12.062 7.41879 11.8137L5.0098 10.093Z" fill="#2BA172"/>
    <path d="M5.06113 7.61281C5.04946 7.63907 5.05787 7.66991 5.08124 7.6866L7.53502 9.4393C7.70233 9.55881 7.78598 9.61856 7.87723 9.64167C7.95781 9.66209 8.04221 9.66209 8.12279 9.64167C8.21403 9.61856 8.29769 9.55881 8.465 9.4393L10.9188 7.6866C10.9421 7.66991 10.9506 7.63907 10.9389 7.61281L8.73106 2.6452C8.49952 2.12425 8.38376 1.86378 8.22244 1.78365C8.08232 1.71404 7.91769 1.71404 7.77757 1.78365C7.61625 1.86378 7.50049 2.12425 7.26896 2.6452L5.06113 7.61281Z" fill="#2BA172" fill-opacity="0.62"/>
    <path d="M32.38 9.52C32.38 10.2667 32.2667 10.8867 32.04 11.38C31.8133 11.8733 31.46 12.32 30.98 12.72L32.64 18H28.94L27.7 13.52H27.24V18H23.88V5.58H28.52C29.8533 5.58 30.8267 5.89333 31.44 6.52C32.0667 7.14667 32.38 8.14667 32.38 9.52ZM27.76 11.42C28.1067 11.42 28.3533 11.32 28.5 11.12C28.6467 10.92 28.72 10.56 28.72 10.04C28.72 9.50667 28.6467 9.14 28.5 8.94C28.3533 8.72667 28.1133 8.62 27.78 8.62H27.24V11.42H27.76ZM40.7028 10.92L40.6028 15.06C40.6028 15.3133 40.6628 15.4867 40.7828 15.58C40.9161 15.66 41.1361 15.7 41.4428 15.7L41.1428 18.12C40.3695 18.1733 39.9428 18.2 39.8628 18.2C38.8761 18.2 38.2495 17.86 37.9828 17.18H37.8828C37.3895 17.86 36.6295 18.2 35.6028 18.2C34.8161 18.2 34.2095 17.9467 33.7828 17.44C33.3695 16.9333 33.1628 16.24 33.1628 15.36C33.1628 14.2533 33.5028 13.4867 34.1828 13.06C34.8761 12.6333 35.9628 12.3533 37.4428 12.22V11.74C37.4428 11.3667 37.2561 11.18 36.8828 11.18C36.2428 11.18 35.2428 11.3733 33.8828 11.76L33.3828 8.84C35.0895 8.4 36.5095 8.18 37.6428 8.18C38.7761 8.18 39.5695 8.4 40.0228 8.84C40.4761 9.28 40.7028 9.97333 40.7028 10.92ZM36.8428 15.86C37.3361 15.86 37.5828 15.6 37.5828 15.08V14.1C37.0895 14.1667 36.7361 14.2733 36.5228 14.42C36.3228 14.5533 36.2228 14.7867 36.2228 15.12C36.2228 15.6133 36.4295 15.86 36.8428 15.86ZM49.2138 18H42.0338L41.9538 16.08L44.9138 11.22H41.8338V8.42H49.0138L49.1338 10.2L46.2738 15.24H49.2138V18ZM49.8853 13.18C49.8853 11.42 50.2186 10.1467 50.8853 9.36C51.5653 8.57333 52.6186 8.18 54.0453 8.18C55.4853 8.18 56.532 8.56667 57.1853 9.34C57.8386 10.1133 58.1653 11.3867 58.1653 13.16C58.1653 14.92 57.8453 16.2 57.2053 17C56.5653 17.8 55.5186 18.2 54.0653 18.2C52.612 18.2 51.552 17.8 50.8853 17C50.2186 16.2 49.8853 14.9267 49.8853 13.18ZM54.6853 11.28C54.6053 11.0133 54.392 10.88 54.0453 10.88C53.6986 10.88 53.4786 11.0133 53.3853 11.28C53.292 11.5467 53.2453 12.1067 53.2453 12.96V13.44C53.2453 14.3867 53.292 15 53.3853 15.28C53.4786 15.56 53.692 15.7 54.0253 15.7C54.372 15.7 54.592 15.56 54.6853 15.28C54.7786 15 54.8253 14.4267 54.8253 13.56V12.98C54.8253 12.1133 54.7786 11.5467 54.6853 11.28ZM62.5255 12.62V18H59.2055V8.42H62.1255L62.3255 9H62.4055C62.7121 8.65333 63.0188 8.43333 63.3255 8.34C63.6455 8.23333 64.1588 8.18 64.8655 8.18L64.7255 11.38H63.8055C63.2855 11.38 62.9388 11.46 62.7655 11.62C62.6055 11.78 62.5255 12.1133 62.5255 12.62ZM73.5542 18H70.1542V5.58H73.5542V18ZM79.4206 11.1C79.034 11.1 78.774 11.28 78.6406 11.64C78.5073 11.9867 78.4406 12.5333 78.4406 13.28C78.4406 14.0267 78.5006 14.5667 78.6206 14.9C78.754 15.2333 79.0206 15.4 79.4206 15.4C79.834 15.4 80.3673 15.3267 81.0206 15.18L81.3806 17.74C80.4606 18.0467 79.6406 18.2 78.9206 18.2C77.654 18.2 76.694 17.7733 76.0406 16.92C75.4006 16.0667 75.0806 14.8733 75.0806 13.34C75.0806 11.8067 75.414 10.5667 76.0806 9.62C76.7473 8.66 77.714 8.18 78.9806 8.18C79.9273 8.18 80.7806 8.34 81.5406 8.66L81.1806 11.6C80.4073 11.2667 79.8206 11.1 79.4206 11.1ZM81.9752 13.18C81.9752 11.42 82.3085 10.1467 82.9752 9.36C83.6552 8.57333 84.7085 8.18 86.1352 8.18C87.5752 8.18 88.6218 8.56667 89.2752 9.34C89.9285 10.1133 90.2552 11.3867 90.2552 13.16C90.2552 14.92 89.9352 16.2 89.2952 17C88.6552 17.8 87.6085 18.2 86.1552 18.2C84.7018 18.2 83.6418 17.8 82.9752 17C82.3085 16.2 81.9752 14.9267 81.9752 13.18ZM86.7752 11.28C86.6952 11.0133 86.4818 10.88 86.1352 10.88C85.7885 10.88 85.5685 11.0133 85.4752 11.28C85.3818 11.5467 85.3352 12.1067 85.3352 12.96V13.44C85.3352 14.3867 85.3818 15 85.4752 15.28C85.5685 15.56 85.7818 15.7 86.1152 15.7C86.4618 15.7 86.6818 15.56 86.7752 15.28C86.8685 15 86.9152 14.4267 86.9152 13.56V12.98C86.9152 12.1133 86.8685 11.5467 86.7752 11.28ZM94.6353 9.12C95.3686 8.49333 96.1753 8.18 97.0553 8.18C97.9353 8.18 98.5486 8.38667 98.8953 8.8C99.2553 9.2 99.4353 9.80667 99.4353 10.62V18H96.0353V11.76C96.0353 11.4267 95.8886 11.26 95.5953 11.26C95.222 11.26 94.9086 11.3533 94.6553 11.54V18H91.2953V8.42H94.3553L94.5553 9.12H94.6353ZM111.43 18H105.11V5.58H108.53V15.22H111.63L111.43 18ZM115.457 18H112.157V8.52H115.457V18ZM112.417 7.76C112.137 7.52 111.997 7.13333 111.997 6.6C111.997 6.06667 112.137 5.67333 112.417 5.42C112.697 5.16667 113.157 5.04 113.797 5.04C114.437 5.04 114.897 5.16667 115.177 5.42C115.457 5.67333 115.597 6.06667 115.597 6.6C115.597 7.12 115.457 7.50667 115.177 7.76C114.897 8 114.437 8.12 113.797 8.12C113.157 8.12 112.697 8 112.417 7.76ZM121.845 8.2C123.098 8.2 123.932 8.56667 124.345 9.3C124.758 10.02 124.965 11.2667 124.965 13.04C124.965 14.8 124.745 16.1 124.305 16.94C123.865 17.78 123.005 18.2 121.725 18.2C120.725 18.2 120.025 17.94 119.625 17.42H119.545L119.345 18H116.725V5.18H120.065V8.64H120.145C120.585 8.34667 121.152 8.2 121.845 8.2ZM121.485 15C121.538 14.76 121.572 14.5267 121.585 14.3C121.598 14.0733 121.605 13.6467 121.605 13.02C121.605 12.38 121.558 11.8933 121.465 11.56C121.372 11.2133 121.178 11.04 120.885 11.04C120.605 11.04 120.325 11.12 120.045 11.28V15.42C120.298 15.54 120.538 15.6 120.765 15.6C121.005 15.6 121.172 15.56 121.265 15.48C121.372 15.3867 121.445 15.2267 121.485 15ZM129.361 12.62V18H126.041V8.42H128.961L129.161 9H129.241C129.548 8.65333 129.855 8.43333 130.161 8.34C130.481 8.23333 130.995 8.18 131.701 8.18L131.561 11.38H130.641C130.121 11.38 129.775 11.46 129.601 11.62C129.441 11.78 129.361 12.1133 129.361 12.62ZM139.531 10.92L139.431 15.06C139.431 15.3133 139.491 15.4867 139.611 15.58C139.744 15.66 139.964 15.7 140.271 15.7L139.971 18.12C139.198 18.1733 138.771 18.2 138.691 18.2C137.704 18.2 137.078 17.86 136.811 17.18H136.711C136.218 17.86 135.458 18.2 134.431 18.2C133.644 18.2 133.038 17.9467 132.611 17.44C132.198 16.9333 131.991 16.24 131.991 15.36C131.991 14.2533 132.331 13.4867 133.011 13.06C133.704 12.6333 134.791 12.3533 136.271 12.22V11.74C136.271 11.3667 136.084 11.18 135.711 11.18C135.071 11.18 134.071 11.3733 132.711 11.76L132.211 8.84C133.918 8.4 135.338 8.18 136.471 8.18C137.604 8.18 138.398 8.4 138.851 8.84C139.304 9.28 139.531 9.97333 139.531 10.92ZM135.671 15.86C136.164 15.86 136.411 15.6 136.411 15.08V14.1C135.918 14.1667 135.564 14.2733 135.351 14.42C135.151 14.5533 135.051 14.7867 135.051 15.12C135.051 15.6133 135.258 15.86 135.671 15.86ZM144.342 12.62V18H141.022V8.42H143.942L144.142 9H144.222C144.529 8.65333 144.835 8.43333 145.142 8.34C145.462 8.23333 145.975 8.18 146.682 8.18L146.542 11.38H145.622C145.102 11.38 144.755 11.46 144.582 11.62C144.422 11.78 144.342 12.1133 144.342 12.62ZM155.591 8.42L153.111 18.28C152.858 19.2667 152.485 19.9533 151.991 20.34C151.498 20.74 150.691 20.94 149.571 20.94H147.571L147.271 18.36H148.391C148.845 18.36 149.071 18.18 149.071 17.82C149.071 17.74 149.045 17.5667 148.991 17.3L146.691 8.42H150.251L151.151 14.4H151.331L152.311 8.42H155.591Z" fill="#2BA172"/>
</svg>
