<svg width="183" height="20" viewBox="0 0 183 20" fill="none" xmlns="http://www.w3.org/2000/svg">
    <path d="M10.256 5.824C10.256 6.72 10.12 7.464 9.848 8.056C9.576 8.648 9.152 9.184 8.576 9.664L10.568 16H6.128L4.64 10.624H4.088V16H0.0560001V1.096H5.624C7.224 1.096 8.392 1.472 9.128 2.224C9.88 2.976 10.256 4.176 10.256 5.824ZM4.712 8.104C5.128 8.104 5.424 7.984 5.6 7.744C5.776 7.504 5.864 7.072 5.864 6.448C5.864 5.808 5.776 5.368 5.6 5.128C5.424 4.872 5.136 4.744 4.736 4.744H4.088V8.104H4.712ZM20.2434 7.504L20.1234 12.472C20.1234 12.776 20.1954 12.984 20.3394 13.096C20.4994 13.192 20.7634 13.24 21.1314 13.24L20.7714 16.144C19.8434 16.208 19.3314 16.24 19.2354 16.24C18.0514 16.24 17.2994 15.832 16.9794 15.016H16.8594C16.2674 15.832 15.3554 16.24 14.1234 16.24C13.1794 16.24 12.4514 15.936 11.9394 15.328C11.4434 14.72 11.1954 13.888 11.1954 12.832C11.1954 11.504 11.6034 10.584 12.4194 10.072C13.2514 9.56 14.5554 9.224 16.3314 9.064V8.488C16.3314 8.04 16.1074 7.816 15.6594 7.816C14.8914 7.816 13.6914 8.048 12.0594 8.512L11.4594 5.008C13.5074 4.48 15.2114 4.216 16.5714 4.216C17.9314 4.216 18.8834 4.48 19.4274 5.008C19.9714 5.536 20.2434 6.368 20.2434 7.504ZM15.6114 13.432C16.2034 13.432 16.4994 13.12 16.4994 12.496V11.32C15.9074 11.4 15.4834 11.528 15.2274 11.704C14.9874 11.864 14.8674 12.144 14.8674 12.544C14.8674 13.136 15.1154 13.432 15.6114 13.432ZM30.4565 16H21.8405L21.7445 13.696L25.2965 7.864H21.6005V4.504H30.2165L30.3605 6.64L26.9285 12.688H30.4565V16ZM31.2624 10.216C31.2624 8.104 31.6624 6.576 32.4624 5.632C33.2784 4.688 34.5424 4.216 36.2544 4.216C37.9824 4.216 39.2384 4.68 40.0224 5.608C40.8064 6.536 41.1984 8.064 41.1984 10.192C41.1984 12.304 40.8144 13.84 40.0464 14.8C39.2784 15.76 38.0224 16.24 36.2784 16.24C34.5344 16.24 33.2624 15.76 32.4624 14.8C31.6624 13.84 31.2624 12.312 31.2624 10.216ZM37.0224 7.936C36.9264 7.616 36.6704 7.456 36.2544 7.456C35.8384 7.456 35.5744 7.616 35.4624 7.936C35.3504 8.256 35.2944 8.928 35.2944 9.952V10.528C35.2944 11.664 35.3504 12.4 35.4624 12.736C35.5744 13.072 35.8304 13.24 36.2304 13.24C36.6464 13.24 36.9104 13.072 37.0224 12.736C37.1344 12.4 37.1904 11.712 37.1904 10.672V9.976C37.1904 8.936 37.1344 8.256 37.0224 7.936ZM46.4306 9.544V16H42.4466V4.504H45.9506L46.1906 5.2H46.2866C46.6546 4.784 47.0226 4.52 47.3906 4.408C47.7746 4.28 48.3906 4.216 49.2386 4.216L49.0706 8.056H47.9666C47.3426 8.056 46.9266 8.152 46.7186 8.344C46.5266 8.536 46.4306 8.936 46.4306 9.544ZM54.6731 5.584C54.6731 4.16 55.0891 3.016 55.9211 2.152C56.7531 1.288 57.8891 0.855999 59.3291 0.855999C60.7851 0.855999 62.2731 0.999999 63.7931 1.288L63.3131 5.128C61.7291 4.76 60.6411 4.576 60.0491 4.576C59.2971 4.576 58.9211 4.88 58.9211 5.488C58.9211 5.728 59.0971 5.96 59.4491 6.184C59.8171 6.408 60.2571 6.648 60.7691 6.904C61.2811 7.144 61.7931 7.44 62.3051 7.792C62.8171 8.128 63.2491 8.616 63.6011 9.256C63.9691 9.896 64.1531 10.632 64.1531 11.464C64.1531 12.984 63.7451 14.16 62.9291 14.992C62.1131 15.824 60.9531 16.24 59.4491 16.24C57.9611 16.24 56.5051 16.008 55.0811 15.544L55.3451 11.968C57.0571 12.464 58.2491 12.712 58.9211 12.712C59.5931 12.712 59.9291 12.416 59.9291 11.824C59.9291 11.52 59.7451 11.24 59.3771 10.984C59.0251 10.728 58.5931 10.472 58.0811 10.216C57.5691 9.96 57.0491 9.664 56.5211 9.328C56.0091 8.992 55.5691 8.504 55.2011 7.864C54.8491 7.224 54.6731 6.464 54.6731 5.584ZM69.3553 5.344C70.2353 4.592 71.1873 4.216 72.2113 4.216C73.2353 4.216 73.9553 4.464 74.3713 4.96C74.8033 5.44 75.0193 6.168 75.0193 7.144V16H70.9393V8.512C70.9393 8.112 70.7633 7.912 70.4113 7.912C69.9633 7.912 69.5873 8.024 69.2833 8.248V16H65.2513V0.615999H69.2593V5.344H69.3553ZM85.1184 7.504L84.9984 12.472C84.9984 12.776 85.0704 12.984 85.2144 13.096C85.3744 13.192 85.6384 13.24 86.0064 13.24L85.6464 16.144C84.7184 16.208 84.2064 16.24 84.1104 16.24C82.9264 16.24 82.1744 15.832 81.8544 15.016H81.7344C81.1424 15.832 80.2304 16.24 78.9984 16.24C78.0544 16.24 77.3264 15.936 76.8144 15.328C76.3184 14.72 76.0704 13.888 76.0704 12.832C76.0704 11.504 76.4784 10.584 77.2944 10.072C78.1264 9.56 79.4304 9.224 81.2064 9.064V8.488C81.2064 8.04 80.9824 7.816 80.5344 7.816C79.7664 7.816 78.5664 8.048 76.9344 8.512L76.3344 5.008C78.3824 4.48 80.0864 4.216 81.4464 4.216C82.8064 4.216 83.7584 4.48 84.3024 5.008C84.8464 5.536 85.1184 6.368 85.1184 7.504ZM80.4864 13.432C81.0784 13.432 81.3744 13.12 81.3744 12.496V11.32C80.7824 11.4 80.3584 11.528 80.1024 11.704C79.8624 11.864 79.7424 12.144 79.7424 12.544C79.7424 13.136 79.9904 13.432 80.4864 13.432ZM90.8915 9.544V16H86.9075V4.504H90.4115L90.6515 5.2H90.7475C91.1155 4.784 91.4835 4.52 91.8515 4.408C92.2355 4.28 92.8515 4.216 93.6995 4.216L93.5315 8.056H92.4275C91.8035 8.056 91.3875 8.152 91.1795 8.344C90.9875 8.536 90.8915 8.936 90.8915 9.544ZM99.2309 7.648C98.8149 7.648 98.5429 7.792 98.4149 8.08C98.2869 8.352 98.2229 8.776 98.2229 9.352H100.311V8.776C100.311 8.024 99.9509 7.648 99.2309 7.648ZM99.3269 4.216C100.975 4.216 102.151 4.616 102.855 5.416C103.575 6.2 103.935 7.328 103.935 8.8C103.935 8.992 103.879 9.856 103.767 11.392H98.2949C98.2949 12.592 98.8469 13.192 99.9509 13.192C100.479 13.192 101.511 13.008 103.047 12.64L103.383 15.616C102.039 16.032 100.695 16.24 99.3509 16.24C97.7029 16.24 96.4389 15.704 95.5589 14.632C94.6789 13.544 94.2389 12.072 94.2389 10.216C94.2389 6.216 95.9349 4.216 99.3269 4.216ZM115.224 16.144L113.616 16.24C112.384 16.24 111.632 15.832 111.36 15.016H111.24C110.712 15.832 109.904 16.24 108.816 16.24C107.376 16.24 106.36 15.736 105.768 14.728C105.192 13.72 104.904 12.224 104.904 10.24C104.904 8.24 105.232 6.736 105.888 5.728C106.544 4.72 107.488 4.216 108.72 4.216C109.568 4.216 110.224 4.416 110.688 4.816V0.615999H114.696V12.472C114.696 12.776 114.76 12.984 114.888 13.096C115.016 13.192 115.248 13.24 115.584 13.24L115.224 16.144ZM109.776 7.6C109.44 7.6 109.216 7.808 109.104 8.224C108.992 8.624 108.936 9.208 108.936 9.976C108.936 10.728 108.944 11.24 108.96 11.512C108.976 11.784 109.008 12.064 109.056 12.352C109.12 12.624 109.208 12.816 109.32 12.928C109.448 13.024 109.648 13.072 109.92 13.072C110.208 13.072 110.504 13 110.808 12.856V7.888C110.472 7.696 110.128 7.6 109.776 7.6ZM129.445 16H121.861V1.096H125.965V12.664H129.685L129.445 16ZM134.276 16H130.316V4.624H134.276V16ZM130.628 3.712C130.292 3.424 130.124 2.96 130.124 2.32C130.124 1.68 130.292 1.208 130.628 0.904C130.964 0.6 131.516 0.448 132.284 0.448C133.052 0.448 133.604 0.6 133.94 0.904C134.276 1.208 134.444 1.68 134.444 2.32C134.444 2.944 134.276 3.408 133.94 3.712C133.604 4 133.052 4.144 132.284 4.144C131.516 4.144 130.964 4 130.628 3.712ZM141.942 4.24C143.446 4.24 144.446 4.68 144.942 5.56C145.438 6.424 145.686 7.92 145.686 10.048C145.686 12.16 145.422 13.72 144.894 14.728C144.366 15.736 143.334 16.24 141.798 16.24C140.598 16.24 139.758 15.928 139.278 15.304H139.182L138.942 16H135.798V0.615999H139.806V4.768H139.902C140.43 4.416 141.11 4.24 141.942 4.24ZM141.51 12.4C141.574 12.112 141.614 11.832 141.63 11.56C141.646 11.288 141.654 10.776 141.654 10.024C141.654 9.256 141.598 8.672 141.486 8.272C141.374 7.856 141.142 7.648 140.79 7.648C140.454 7.648 140.118 7.744 139.782 7.936V12.904C140.086 13.048 140.374 13.12 140.646 13.12C140.934 13.12 141.134 13.072 141.246 12.976C141.374 12.864 141.462 12.672 141.51 12.4ZM150.962 9.544V16H146.978V4.504H150.482L150.722 5.2H150.818C151.186 4.784 151.554 4.52 151.922 4.408C152.306 4.28 152.922 4.216 153.77 4.216L153.602 8.056H152.498C151.874 8.056 151.458 8.152 151.25 8.344C151.058 8.536 150.962 8.936 150.962 9.544ZM163.165 7.504L163.045 12.472C163.045 12.776 163.117 12.984 163.261 13.096C163.421 13.192 163.685 13.24 164.053 13.24L163.693 16.144C162.765 16.208 162.253 16.24 162.157 16.24C160.973 16.24 160.221 15.832 159.901 15.016H159.781C159.189 15.832 158.277 16.24 157.045 16.24C156.101 16.24 155.373 15.936 154.861 15.328C154.365 14.72 154.117 13.888 154.117 12.832C154.117 11.504 154.525 10.584 155.341 10.072C156.173 9.56 157.477 9.224 159.253 9.064V8.488C159.253 8.04 159.029 7.816 158.581 7.816C157.813 7.816 156.613 8.048 154.981 8.512L154.381 5.008C156.429 4.48 158.133 4.216 159.493 4.216C160.853 4.216 161.805 4.48 162.349 5.008C162.893 5.536 163.165 6.368 163.165 7.504ZM158.533 13.432C159.125 13.432 159.421 13.12 159.421 12.496V11.32C158.829 11.4 158.405 11.528 158.149 11.704C157.909 11.864 157.789 12.144 157.789 12.544C157.789 13.136 158.037 13.432 158.533 13.432ZM168.938 9.544V16H164.954V4.504H168.458L168.698 5.2H168.794C169.162 4.784 169.53 4.52 169.898 4.408C170.282 4.28 170.898 4.216 171.746 4.216L171.578 8.056H170.474C169.85 8.056 169.434 8.152 169.226 8.344C169.034 8.536 168.938 8.936 168.938 9.544ZM182.438 4.504L179.462 16.336C179.158 17.52 178.71 18.344 178.118 18.808C177.526 19.288 176.558 19.528 175.214 19.528H172.814L172.454 16.432H173.798C174.342 16.432 174.614 16.216 174.614 15.784C174.614 15.688 174.582 15.48 174.518 15.16L171.758 4.504H176.03L177.11 11.68H177.326L178.502 4.504H182.438Z" fill="#2BA172"/>
</svg>
