<svg width="243" height="30" viewBox="0 0 243 30" fill="none" xmlns="http://www.w3.org/2000/svg">
    <path d="M7.20154 13.0712C6.80862 12.7906 6.61216 12.6502 6.41715 12.6329C6.24612 12.6178 6.07532 12.6643 5.93565 12.7642C5.7764 12.8781 5.67835 13.0987 5.48224 13.5399L1.11431 23.3678C0.764221 24.1555 0.589169 24.5493 0.663714 24.8027C0.728406 25.0226 0.89411 25.1985 1.10978 25.2762C1.3583 25.3656 1.76186 25.2143 2.56899 24.9116L11.0962 21.7139C11.2456 21.6579 11.3203 21.6299 11.3972 21.6187C11.4654 21.6089 11.5346 21.6089 11.6028 21.6187C11.6796 21.6299 11.7544 21.6579 11.9038 21.7139L20.431 24.9116C21.2381 25.2143 21.6417 25.3656 21.8902 25.2762C22.1059 25.1985 22.2716 25.0226 22.3363 24.8027C22.4108 24.5493 22.2358 24.1555 21.8857 23.3678L17.5178 13.5399C17.3216 13.0987 17.2236 12.8781 17.0643 12.7642C16.9247 12.6643 16.7539 12.6178 16.5828 12.6329C16.3878 12.6502 16.1914 12.7905 15.7984 13.0712L12.3355 15.5447C11.8357 15.9017 11.1643 15.9017 10.6645 15.5447L7.20154 13.0712Z" fill="#9763F6" fill-opacity="0.9"/>
    <path d="M7.27542 9.50598C7.25864 9.54372 7.27073 9.58805 7.30433 9.61206L10.8316 12.1316C11.0721 12.3033 11.1924 12.3892 11.3236 12.4225C11.4394 12.4518 11.5607 12.4518 11.6766 12.4225C11.8077 12.3892 11.928 12.3033 12.1685 12.1316L15.6958 9.61206C15.7294 9.58805 15.7415 9.54372 15.7247 9.50598L12.5509 2.36504C12.2181 1.61617 12.0517 1.24174 11.8198 1.12655C11.6184 1.0265 11.3817 1.0265 11.1803 1.12655C10.9484 1.24174 10.782 1.61617 10.4492 2.36503L7.27542 9.50598Z" fill="#9763F6" fill-opacity="0.68"/>
    <path d="M41.132 13.128C41.132 14.1733 40.9733 15.0413 40.656 15.732C40.3387 16.4227 39.844 17.048 39.172 17.608L41.496 25H36.316L34.58 18.728H33.936V25H29.232V7.612H35.728C37.5947 7.612 38.9573 8.05067 39.816 8.928C40.6933 9.80533 41.132 11.2053 41.132 13.128ZM34.664 15.788C35.1493 15.788 35.4947 15.648 35.7 15.368C35.9053 15.088 36.008 14.584 36.008 13.856C36.008 13.1093 35.9053 12.596 35.7 12.316C35.4947 12.0173 35.1587 11.868 34.692 11.868H33.936V15.788H34.664ZM52.7839 15.088L52.6439 20.884C52.6439 21.2387 52.7279 21.4813 52.8959 21.612C53.0826 21.724 53.3906 21.78 53.8199 21.78L53.3999 25.168C52.3173 25.2427 51.7199 25.28 51.6079 25.28C50.2266 25.28 49.3493 24.804 48.9759 23.852H48.8359C48.1453 24.804 47.0813 25.28 45.6439 25.28C44.5426 25.28 43.6933 24.9253 43.0959 24.216C42.5173 23.5067 42.2279 22.536 42.2279 21.304C42.2279 19.7547 42.7039 18.6813 43.6559 18.084C44.6266 17.4867 46.1479 17.0947 48.2199 16.908V16.236C48.2199 15.7133 47.9586 15.452 47.4359 15.452C46.5399 15.452 45.1399 15.7227 43.2359 16.264L42.5359 12.176C44.9253 11.56 46.9133 11.252 48.4999 11.252C50.0866 11.252 51.1973 11.56 51.8319 12.176C52.4666 12.792 52.7839 13.7627 52.7839 15.088ZM47.3799 22.004C48.0706 22.004 48.4159 21.64 48.4159 20.912V19.54C47.7253 19.6333 47.2306 19.7827 46.9319 19.988C46.6519 20.1747 46.5119 20.5013 46.5119 20.968C46.5119 21.6587 46.8013 22.004 47.3799 22.004ZM64.6993 25H54.6473L54.5353 22.312L58.6793 15.508H54.3673V11.588H64.4193L64.5873 14.08L60.5833 21.136H64.6993V25ZM65.6394 18.252C65.6394 15.788 66.1061 14.0053 67.0394 12.904C67.9914 11.8027 69.4661 11.252 71.4634 11.252C73.4794 11.252 74.9448 11.7933 75.8594 12.876C76.7741 13.9587 77.2314 15.7413 77.2314 18.224C77.2314 20.688 76.7834 22.48 75.8874 23.6C74.9914 24.72 73.5261 25.28 71.4914 25.28C69.4568 25.28 67.9728 24.72 67.0394 23.6C66.1061 22.48 65.6394 20.6973 65.6394 18.252ZM72.3594 15.592C72.2474 15.2187 71.9488 15.032 71.4634 15.032C70.9781 15.032 70.6701 15.2187 70.5394 15.592C70.4088 15.9653 70.3434 16.7493 70.3434 17.944V18.616C70.3434 19.9413 70.4088 20.8 70.5394 21.192C70.6701 21.584 70.9688 21.78 71.4354 21.78C71.9208 21.78 72.2288 21.584 72.3594 21.192C72.4901 20.8 72.5554 19.9973 72.5554 18.784V17.972C72.5554 16.7587 72.4901 15.9653 72.3594 15.592ZM83.3357 17.468V25H78.6877V11.588H82.7757L83.0557 12.4H83.1677C83.597 11.9147 84.0263 11.6067 84.4557 11.476C84.9037 11.3267 85.6223 11.252 86.6117 11.252L86.4157 15.732H85.1277C84.3997 15.732 83.9143 15.844 83.6717 16.068C83.4477 16.292 83.3357 16.7587 83.3357 17.468ZM92.9519 12.848C92.9519 11.1867 93.4372 9.852 94.4079 8.844C95.3786 7.836 96.7039 7.332 98.3839 7.332C100.083 7.332 101.819 7.5 103.592 7.836L103.032 12.316C101.184 11.8867 99.9146 11.672 99.2239 11.672C98.3466 11.672 97.9079 12.0267 97.9079 12.736C97.9079 13.016 98.1132 13.2867 98.5239 13.548C98.9532 13.8093 99.4666 14.0893 100.064 14.388C100.661 14.668 101.259 15.0133 101.856 15.424C102.453 15.816 102.957 16.3853 103.368 17.132C103.797 17.8787 104.012 18.7373 104.012 19.708C104.012 21.4813 103.536 22.8533 102.584 23.824C101.632 24.7947 100.279 25.28 98.5239 25.28C96.7879 25.28 95.0892 25.0093 93.4279 24.468L93.7359 20.296C95.7332 20.8747 97.1239 21.164 97.9079 21.164C98.6919 21.164 99.0839 20.8187 99.0839 20.128C99.0839 19.7733 98.8692 19.4467 98.4399 19.148C98.0292 18.8493 97.5252 18.5507 96.9279 18.252C96.3306 17.9533 95.7239 17.608 95.1079 17.216C94.5106 16.824 93.9972 16.2547 93.5679 15.508C93.1572 14.7613 92.9519 13.8747 92.9519 12.848ZM110.081 12.568C111.108 11.6907 112.218 11.252 113.413 11.252C114.608 11.252 115.448 11.5413 115.933 12.12C116.437 12.68 116.689 13.5293 116.689 14.668V25H111.929V16.264C111.929 15.7973 111.724 15.564 111.313 15.564C110.79 15.564 110.352 15.6947 109.997 15.956V25H105.293V7.052H109.969V12.568H110.081ZM128.471 15.088L128.331 20.884C128.331 21.2387 128.415 21.4813 128.583 21.612C128.77 21.724 129.078 21.78 129.507 21.78L129.087 25.168C128.005 25.2427 127.407 25.28 127.295 25.28C125.914 25.28 125.037 24.804 124.663 23.852H124.523C123.833 24.804 122.769 25.28 121.331 25.28C120.23 25.28 119.381 24.9253 118.783 24.216C118.205 23.5067 117.915 22.536 117.915 21.304C117.915 19.7547 118.391 18.6813 119.343 18.084C120.314 17.4867 121.835 17.0947 123.907 16.908V16.236C123.907 15.7133 123.646 15.452 123.123 15.452C122.227 15.452 120.827 15.7227 118.923 16.264L118.223 12.176C120.613 11.56 122.601 11.252 124.187 11.252C125.774 11.252 126.885 11.56 127.519 12.176C128.154 12.792 128.471 13.7627 128.471 15.088ZM123.067 22.004C123.758 22.004 124.103 21.64 124.103 20.912V19.54C123.413 19.6333 122.918 19.7827 122.619 19.988C122.339 20.1747 122.199 20.5013 122.199 20.968C122.199 21.6587 122.489 22.004 123.067 22.004ZM135.207 17.468V25H130.559V11.588H134.647L134.927 12.4H135.039C135.468 11.9147 135.897 11.6067 136.327 11.476C136.775 11.3267 137.493 11.252 138.483 11.252L138.287 15.732H136.999C136.271 15.732 135.785 15.844 135.543 16.068C135.319 16.292 135.207 16.7587 135.207 17.468ZM144.936 15.256C144.451 15.256 144.133 15.424 143.984 15.76C143.835 16.0773 143.76 16.572 143.76 17.244H146.196V16.572C146.196 15.6947 145.776 15.256 144.936 15.256ZM145.048 11.252C146.971 11.252 148.343 11.7187 149.164 12.652C150.004 13.5667 150.424 14.8827 150.424 16.6C150.424 16.824 150.359 17.832 150.228 19.624H143.844C143.844 21.024 144.488 21.724 145.776 21.724C146.392 21.724 147.596 21.5093 149.388 21.08L149.78 24.552C148.212 25.0373 146.644 25.28 145.076 25.28C143.153 25.28 141.679 24.6547 140.652 23.404C139.625 22.1347 139.112 20.4173 139.112 18.252C139.112 13.5853 141.091 11.252 145.048 11.252ZM163.595 25.168L161.719 25.28C160.281 25.28 159.404 24.804 159.087 23.852H158.947C158.331 24.804 157.388 25.28 156.119 25.28C154.439 25.28 153.253 24.692 152.563 23.516C151.891 22.34 151.555 20.5947 151.555 18.28C151.555 15.9467 151.937 14.192 152.703 13.016C153.468 11.84 154.569 11.252 156.007 11.252C156.996 11.252 157.761 11.4853 158.303 11.952V7.052H162.979V20.884C162.979 21.2387 163.053 21.4813 163.203 21.612C163.352 21.724 163.623 21.78 164.015 21.78L163.595 25.168ZM157.239 15.2C156.847 15.2 156.585 15.4427 156.455 15.928C156.324 16.3947 156.259 17.076 156.259 17.972C156.259 18.8493 156.268 19.4467 156.287 19.764C156.305 20.0813 156.343 20.408 156.399 20.744C156.473 21.0613 156.576 21.2853 156.707 21.416C156.856 21.528 157.089 21.584 157.407 21.584C157.743 21.584 158.088 21.5 158.443 21.332V15.536C158.051 15.312 157.649 15.2 157.239 15.2ZM180.185 25H171.337V7.612H176.125V21.108H180.465L180.185 25ZM185.822 25H181.202V11.728H185.822V25ZM181.566 10.664C181.174 10.328 180.978 9.78667 180.978 9.04C180.978 8.29333 181.174 7.74267 181.566 7.388C181.958 7.03333 182.602 6.856 183.498 6.856C184.394 6.856 185.038 7.03333 185.43 7.388C185.822 7.74267 186.018 8.29333 186.018 9.04C186.018 9.768 185.822 10.3093 185.43 10.664C185.038 11 184.394 11.168 183.498 11.168C182.602 11.168 181.958 11 181.566 10.664ZM194.766 11.28C196.52 11.28 197.687 11.7933 198.266 12.82C198.844 13.828 199.134 15.5733 199.134 18.056C199.134 20.52 198.826 22.34 198.21 23.516C197.594 24.692 196.39 25.28 194.598 25.28C193.198 25.28 192.218 24.916 191.658 24.188H191.546L191.266 25H187.598V7.052H192.274V11.896H192.386C193.002 11.4853 193.795 11.28 194.766 11.28ZM194.262 20.8C194.336 20.464 194.383 20.1373 194.402 19.82C194.42 19.5027 194.43 18.9053 194.43 18.028C194.43 17.132 194.364 16.4507 194.234 15.984C194.103 15.4987 193.832 15.256 193.422 15.256C193.03 15.256 192.638 15.368 192.246 15.592V21.388C192.6 21.556 192.936 21.64 193.254 21.64C193.59 21.64 193.823 21.584 193.954 21.472C194.103 21.3413 194.206 21.1173 194.262 20.8ZM205.289 17.468V25H200.641V11.588H204.729L205.009 12.4H205.121C205.55 11.9147 205.979 11.6067 206.409 11.476C206.857 11.3267 207.575 11.252 208.565 11.252L208.369 15.732H207.081C206.353 15.732 205.867 15.844 205.625 16.068C205.401 16.292 205.289 16.7587 205.289 17.468ZM219.526 15.088L219.386 20.884C219.386 21.2387 219.47 21.4813 219.638 21.612C219.825 21.724 220.133 21.78 220.562 21.78L220.142 25.168C219.059 25.2427 218.462 25.28 218.35 25.28C216.969 25.28 216.091 24.804 215.718 23.852H215.578C214.887 24.804 213.823 25.28 212.386 25.28C211.285 25.28 210.435 24.9253 209.838 24.216C209.259 23.5067 208.97 22.536 208.97 21.304C208.97 19.7547 209.446 18.6813 210.398 18.084C211.369 17.4867 212.89 17.0947 214.962 16.908V16.236C214.962 15.7133 214.701 15.452 214.178 15.452C213.282 15.452 211.882 15.7227 209.978 16.264L209.278 12.176C211.667 11.56 213.655 11.252 215.242 11.252C216.829 11.252 217.939 11.56 218.574 12.176C219.209 12.792 219.526 13.7627 219.526 15.088ZM214.122 22.004C214.813 22.004 215.158 21.64 215.158 20.912V19.54C214.467 19.6333 213.973 19.7827 213.674 19.988C213.394 20.1747 213.254 20.5013 213.254 20.968C213.254 21.6587 213.543 22.004 214.122 22.004ZM226.261 17.468V25H221.613V11.588H225.701L225.981 12.4H226.093C226.523 11.9147 226.952 11.6067 227.381 11.476C227.829 11.3267 228.548 11.252 229.537 11.252L229.341 15.732H228.053C227.325 15.732 226.84 15.844 226.597 16.068C226.373 16.292 226.261 16.7587 226.261 17.468ZM242.011 11.588L238.539 25.392C238.184 26.7733 237.661 27.7347 236.971 28.276C236.28 28.836 235.151 29.116 233.583 29.116H230.783L230.363 25.504H231.931C232.565 25.504 232.883 25.252 232.883 24.748C232.883 24.636 232.845 24.3933 232.771 24.02L229.551 11.588H234.535L235.795 19.96H236.047L237.419 11.588H242.011Z" fill="#2BA172"/>
</svg>
