<svg width="176" height="35" viewBox="0 0 176 35" fill="none" xmlns="http://www.w3.org/2000/svg">
    <path d="M5.00977 15.093C4.73643 14.8977 4.59976 14.8001 4.46411 14.7881C4.34513 14.7775 4.22631 14.8099 4.12915 14.8794C4.01837 14.9586 3.95016 15.1121 3.81373 15.419L0.775175 22.2558C0.531634 22.8038 0.409858 23.0778 0.461715 23.254C0.506719 23.407 0.621991 23.5294 0.772024 23.5834C0.944906 23.6456 1.22564 23.5403 1.78712 23.3298L7.7191 21.1053C7.82305 21.0663 7.87502 21.0468 7.92849 21.0391C7.97592 21.0322 8.02408 21.0322 8.07151 21.0391C8.12498 21.0468 8.17695 21.0663 8.2809 21.1053L14.2129 23.3298C14.7744 23.5403 15.0551 23.6456 15.228 23.5834C15.378 23.5294 15.4933 23.407 15.5383 23.254C15.5901 23.0778 15.4684 22.8038 15.2248 22.2558L12.1863 15.419C12.0498 15.1121 11.9816 14.9586 11.8708 14.8794C11.7737 14.8099 11.6549 14.7775 11.5359 14.7881C11.4002 14.8001 11.2636 14.8977 10.9902 15.093L8.58124 16.8137C8.23354 17.062 7.76646 17.062 7.41876 16.8137L5.00977 15.093Z" fill="#9763F6" fill-opacity="0.9"/>
    <path d="M5.06116 12.6128C5.04949 12.6391 5.0579 12.6699 5.08127 12.6866L7.53505 14.4393C7.70236 14.5588 7.78601 14.6186 7.87726 14.6417C7.95784 14.6621 8.04224 14.6621 8.12282 14.6417C8.21406 14.6186 8.29772 14.5588 8.46503 14.4393L10.9188 12.6866C10.9422 12.6699 10.9506 12.6391 10.9389 12.6128L8.73109 7.6452C8.49956 7.12425 8.38379 6.86378 8.22247 6.78365C8.08235 6.71404 7.91772 6.71404 7.7776 6.78365C7.61629 6.86378 7.50052 7.12425 7.26899 7.6452L5.06116 12.6128Z" fill="#9763F6" fill-opacity="0.68"/>
    <path d="M32.38 14.52C32.38 15.2667 32.2667 15.8867 32.04 16.38C31.8133 16.8733 31.46 17.32 30.98 17.72L32.64 23H28.94L27.7 18.52H27.24V23H23.88V10.58H28.52C29.8533 10.58 30.8267 10.8933 31.44 11.52C32.0667 12.1467 32.38 13.1467 32.38 14.52ZM27.76 16.42C28.1067 16.42 28.3533 16.32 28.5 16.12C28.6467 15.92 28.72 15.56 28.72 15.04C28.72 14.5067 28.6467 14.14 28.5 13.94C28.3533 13.7267 28.1133 13.62 27.78 13.62H27.24V16.42H27.76ZM40.7028 15.92L40.6028 20.06C40.6028 20.3133 40.6628 20.4867 40.7828 20.58C40.9161 20.66 41.1361 20.7 41.4428 20.7L41.1428 23.12C40.3695 23.1733 39.9428 23.2 39.8628 23.2C38.8761 23.2 38.2495 22.86 37.9828 22.18H37.8828C37.3895 22.86 36.6295 23.2 35.6028 23.2C34.8161 23.2 34.2095 22.9467 33.7828 22.44C33.3695 21.9333 33.1628 21.24 33.1628 20.36C33.1628 19.2533 33.5028 18.4867 34.1828 18.06C34.8761 17.6333 35.9628 17.3533 37.4428 17.22V16.74C37.4428 16.3667 37.2561 16.18 36.8828 16.18C36.2428 16.18 35.2428 16.3733 33.8828 16.76L33.3828 13.84C35.0895 13.4 36.5095 13.18 37.6428 13.18C38.7761 13.18 39.5695 13.4 40.0228 13.84C40.4761 14.28 40.7028 14.9733 40.7028 15.92ZM36.8428 20.86C37.3361 20.86 37.5828 20.6 37.5828 20.08V19.1C37.0895 19.1667 36.7361 19.2733 36.5228 19.42C36.3228 19.5533 36.2228 19.7867 36.2228 20.12C36.2228 20.6133 36.4295 20.86 36.8428 20.86ZM49.2138 23H42.0338L41.9538 21.08L44.9138 16.22H41.8338V13.42H49.0138L49.1338 15.2L46.2738 20.24H49.2138V23ZM49.8853 18.18C49.8853 16.42 50.2186 15.1467 50.8853 14.36C51.5653 13.5733 52.6186 13.18 54.0453 13.18C55.4853 13.18 56.532 13.5667 57.1853 14.34C57.8386 15.1133 58.1653 16.3867 58.1653 18.16C58.1653 19.92 57.8453 21.2 57.2053 22C56.5653 22.8 55.5186 23.2 54.0653 23.2C52.612 23.2 51.552 22.8 50.8853 22C50.2186 21.2 49.8853 19.9267 49.8853 18.18ZM54.6853 16.28C54.6053 16.0133 54.392 15.88 54.0453 15.88C53.6986 15.88 53.4786 16.0133 53.3853 16.28C53.292 16.5467 53.2453 17.1067 53.2453 17.96V18.44C53.2453 19.3867 53.292 20 53.3853 20.28C53.4786 20.56 53.692 20.7 54.0253 20.7C54.372 20.7 54.592 20.56 54.6853 20.28C54.7786 20 54.8253 19.4267 54.8253 18.56V17.98C54.8253 17.1133 54.7786 16.5467 54.6853 16.28ZM62.5255 17.62V23H59.2055V13.42H62.1255L62.3255 14H62.4055C62.7121 13.6533 63.0188 13.4333 63.3255 13.34C63.6455 13.2333 64.1588 13.18 64.8655 13.18L64.7255 16.38H63.8055C63.2855 16.38 62.9388 16.46 62.7655 16.62C62.6055 16.78 62.5255 17.1133 62.5255 17.62ZM69.3942 14.32C69.3942 13.1333 69.7409 12.18 70.4342 11.46C71.1276 10.74 72.0742 10.38 73.2742 10.38C74.4876 10.38 75.7276 10.5 76.9942 10.74L76.5942 13.94C75.2742 13.6333 74.3676 13.48 73.8742 13.48C73.2476 13.48 72.9342 13.7333 72.9342 14.24C72.9342 14.44 73.0809 14.6333 73.3742 14.82C73.6809 15.0067 74.0476 15.2067 74.4742 15.42C74.9009 15.62 75.3276 15.8667 75.7542 16.16C76.1809 16.44 76.5409 16.8467 76.8342 17.38C77.1409 17.9133 77.2942 18.5267 77.2942 19.22C77.2942 20.4867 76.9542 21.4667 76.2742 22.16C75.5942 22.8533 74.6276 23.2 73.3742 23.2C72.1342 23.2 70.9209 23.0067 69.7342 22.62L69.9542 19.64C71.3809 20.0533 72.3742 20.26 72.9342 20.26C73.4942 20.26 73.7742 20.0133 73.7742 19.52C73.7742 19.2667 73.6209 19.0333 73.3142 18.82C73.0209 18.6067 72.6609 18.3933 72.2342 18.18C71.8076 17.9667 71.3742 17.72 70.9342 17.44C70.5076 17.16 70.1409 16.7533 69.8342 16.22C69.5409 15.6867 69.3942 15.0533 69.3942 14.32ZM81.6294 14.12C82.3627 13.4933 83.156 13.18 84.0094 13.18C84.8627 13.18 85.4627 13.3867 85.8094 13.8C86.1694 14.2 86.3494 14.8067 86.3494 15.62V23H82.9494V16.76C82.9494 16.4267 82.8027 16.26 82.5094 16.26C82.136 16.26 81.8227 16.3533 81.5694 16.54V23H78.2094V10.18H81.5494V14.12H81.6294ZM94.7653 15.92L94.6653 20.06C94.6653 20.3133 94.7253 20.4867 94.8453 20.58C94.9786 20.66 95.1986 20.7 95.5053 20.7L95.2053 23.12C94.432 23.1733 94.0053 23.2 93.9253 23.2C92.9386 23.2 92.312 22.86 92.0453 22.18H91.9453C91.452 22.86 90.692 23.2 89.6653 23.2C88.8786 23.2 88.272 22.9467 87.8453 22.44C87.432 21.9333 87.2253 21.24 87.2253 20.36C87.2253 19.2533 87.5653 18.4867 88.2453 18.06C88.9386 17.6333 90.0253 17.3533 91.5053 17.22V16.74C91.5053 16.3667 91.3186 16.18 90.9453 16.18C90.3053 16.18 89.3053 16.3733 87.9453 16.76L87.4453 13.84C89.152 13.4 90.572 13.18 91.7053 13.18C92.8386 13.18 93.632 13.4 94.0853 13.84C94.5386 14.28 94.7653 14.9733 94.7653 15.92ZM90.9053 20.86C91.3986 20.86 91.6453 20.6 91.6453 20.08V19.1C91.152 19.1667 90.7986 19.2733 90.5853 19.42C90.3853 19.5533 90.2853 19.7867 90.2853 20.12C90.2853 20.6133 90.492 20.86 90.9053 20.86ZM99.5763 17.62V23H96.2563V13.42H99.1763L99.3763 14H99.4563C99.7629 13.6533 100.07 13.4333 100.376 13.34C100.696 13.2333 101.21 13.18 101.916 13.18L101.776 16.38H100.856C100.336 16.38 99.9896 16.46 99.8163 16.62C99.6563 16.78 99.5763 17.1133 99.5763 17.62ZM106.526 16.04C106.179 16.04 105.952 16.16 105.846 16.4C105.739 16.6267 105.686 16.98 105.686 17.46H107.426V16.98C107.426 16.3533 107.126 16.04 106.526 16.04ZM106.606 13.18C107.979 13.18 108.959 13.5133 109.546 14.18C110.146 14.8333 110.446 15.7733 110.446 17C110.446 17.16 110.399 17.88 110.306 19.16H105.746C105.746 20.16 106.206 20.66 107.126 20.66C107.566 20.66 108.426 20.5067 109.706 20.2L109.986 22.68C108.866 23.0267 107.746 23.2 106.626 23.2C105.252 23.2 104.199 22.7533 103.466 21.86C102.732 20.9533 102.366 19.7267 102.366 18.18C102.366 14.8467 103.779 13.18 106.606 13.18ZM119.853 23.12L118.513 23.2C117.487 23.2 116.86 22.86 116.633 22.18H116.533C116.093 22.86 115.42 23.2 114.513 23.2C113.313 23.2 112.467 22.78 111.973 21.94C111.493 21.1 111.253 19.8533 111.253 18.2C111.253 16.5333 111.527 15.28 112.073 14.44C112.62 13.6 113.407 13.18 114.433 13.18C115.14 13.18 115.687 13.3467 116.073 13.68V10.18H119.413V20.06C119.413 20.3133 119.467 20.4867 119.573 20.58C119.68 20.66 119.873 20.7 120.153 20.7L119.853 23.12ZM115.313 16C115.033 16 114.847 16.1733 114.753 16.52C114.66 16.8533 114.613 17.34 114.613 17.98C114.613 18.6067 114.62 19.0333 114.633 19.26C114.647 19.4867 114.673 19.72 114.713 19.96C114.767 20.1867 114.84 20.3467 114.933 20.44C115.04 20.52 115.207 20.56 115.433 20.56C115.673 20.56 115.92 20.5 116.173 20.38V16.24C115.893 16.08 115.607 16 115.313 16ZM131.704 23H125.384V10.58H128.804V20.22H131.904L131.704 23ZM135.73 23H132.43V13.52H135.73V23ZM132.69 12.76C132.41 12.52 132.27 12.1333 132.27 11.6C132.27 11.0667 132.41 10.6733 132.69 10.42C132.97 10.1667 133.43 10.04 134.07 10.04C134.71 10.04 135.17 10.1667 135.45 10.42C135.73 10.6733 135.87 11.0667 135.87 11.6C135.87 12.12 135.73 12.5067 135.45 12.76C135.17 13 134.71 13.12 134.07 13.12C133.43 13.12 132.97 13 132.69 12.76ZM142.118 13.2C143.372 13.2 144.205 13.5667 144.618 14.3C145.032 15.02 145.238 16.2667 145.238 18.04C145.238 19.8 145.018 21.1 144.578 21.94C144.138 22.78 143.278 23.2 141.998 23.2C140.998 23.2 140.298 22.94 139.898 22.42H139.818L139.618 23H136.998V10.18H140.338V13.64H140.418C140.858 13.3467 141.425 13.2 142.118 13.2ZM141.758 20C141.812 19.76 141.845 19.5267 141.858 19.3C141.872 19.0733 141.878 18.6467 141.878 18.02C141.878 17.38 141.832 16.8933 141.738 16.56C141.645 16.2133 141.452 16.04 141.158 16.04C140.878 16.04 140.598 16.12 140.318 16.28V20.42C140.572 20.54 140.812 20.6 141.038 20.6C141.278 20.6 141.445 20.56 141.538 20.48C141.645 20.3867 141.718 20.2267 141.758 20ZM149.635 17.62V23H146.315V13.42H149.235L149.435 14H149.515C149.822 13.6533 150.128 13.4333 150.435 13.34C150.755 13.2333 151.268 13.18 151.975 13.18L151.835 16.38H150.915C150.395 16.38 150.048 16.46 149.875 16.62C149.715 16.78 149.635 17.1133 149.635 17.62ZM159.804 15.92L159.704 20.06C159.704 20.3133 159.764 20.4867 159.884 20.58C160.018 20.66 160.238 20.7 160.544 20.7L160.244 23.12C159.471 23.1733 159.044 23.2 158.964 23.2C157.978 23.2 157.351 22.86 157.084 22.18H156.984C156.491 22.86 155.731 23.2 154.704 23.2C153.918 23.2 153.311 22.9467 152.884 22.44C152.471 21.9333 152.264 21.24 152.264 20.36C152.264 19.2533 152.604 18.4867 153.284 18.06C153.978 17.6333 155.064 17.3533 156.544 17.22V16.74C156.544 16.3667 156.358 16.18 155.984 16.18C155.344 16.18 154.344 16.3733 152.984 16.76L152.484 13.84C154.191 13.4 155.611 13.18 156.744 13.18C157.878 13.18 158.671 13.4 159.124 13.84C159.578 14.28 159.804 14.9733 159.804 15.92ZM155.944 20.86C156.438 20.86 156.684 20.6 156.684 20.08V19.1C156.191 19.1667 155.838 19.2733 155.624 19.42C155.424 19.5533 155.324 19.7867 155.324 20.12C155.324 20.6133 155.531 20.86 155.944 20.86ZM164.615 17.62V23H161.295V13.42H164.215L164.415 14H164.495C164.802 13.6533 165.109 13.4333 165.415 13.34C165.735 13.2333 166.249 13.18 166.955 13.18L166.815 16.38H165.895C165.375 16.38 165.029 16.46 164.855 16.62C164.695 16.78 164.615 17.1133 164.615 17.62ZM175.865 13.42L173.385 23.28C173.132 24.2667 172.758 24.9533 172.265 25.34C171.772 25.74 170.965 25.94 169.845 25.94H167.845L167.545 23.36H168.665C169.118 23.36 169.345 23.18 169.345 22.82C169.345 22.74 169.318 22.5667 169.265 22.3L166.965 13.42H170.525L171.425 19.4H171.605L172.585 13.42H175.865Z" fill="#2BA172"/>
</svg>